<svg width="18" height="22" viewBox="0 0 18 22" fill="none" xmlns="http://www.w3.org/2000/svg">
<path d="M14.9674 19.5065C14.9745 19.5011 14.9832 19.4981 14.9921 19.4981C15.001 19.4981 15.0097 19.5011 15.0167 19.5065L16.5403 20.9897C16.5403 20.9897 16.594 20.9897 16.594 20.9584V1H1.00017V20.9225C0.999478 20.9296 1.00088 20.9366 1.0042 20.9429C1.00753 20.9491 1.01262 20.9542 1.01885 20.9576C1.02508 20.961 1.03216 20.9624 1.0392 20.9617C1.04624 20.9611 1.05293 20.9583 1.05843 20.9539L3.0211 19.4796C3.02746 19.4745 3.03536 19.4718 3.04351 19.4718C3.05165 19.4718 3.05955 19.4745 3.06591 19.4796L5.09581 20.9718C5.10246 20.9781 5.11128 20.9816 5.12045 20.9816C5.12962 20.9816 5.13844 20.9781 5.1451 20.9718L6.9375 19.4796C6.9375 19.4796 6.96886 19.4796 6.98679 19.4796L9.0122 20.9673C9.01885 20.9736 9.02767 20.9771 9.03684 20.9771C9.04601 20.9771 9.05483 20.9736 9.06149 20.9673L10.9435 19.5065C10.9509 19.4999 10.9605 19.4963 10.9704 19.4963C10.9803 19.4963 10.9899 19.4999 10.9973 19.5065L13.0182 20.9897C13.0256 20.9963 13.0352 21 13.0451 21C13.055 21 13.0646 20.9963 13.072 20.9897L14.8644 19.511" stroke="#2073FA" stroke-linecap="round"/>
<path d="M2.84644 10.5939H8.80616" stroke="#2073FA" stroke-linecap="round"/>
<path d="M2.84644 8.20093H10.0026" stroke="#2073FA" stroke-linecap="round"/>
<path d="M2.84644 3.37488H10.612" stroke="#2073FA" stroke-linecap="round"/>
<path d="M2.84644 5.66467H9.31252" stroke="#2073FA" stroke-linecap="round"/>
<path d="M12.8345 10.5221H14.7479" stroke="#2073FA" stroke-linecap="round"/>
<path d="M2.84644 13.1479H10.0026" stroke="#2073FA" stroke-linecap="round"/>
<path d="M13.2151 13.0808H14.7476" stroke="#2073FA" stroke-linecap="round"/>
<path d="M12.8345 15.7246H14.7479" stroke="#2073FA" stroke-linecap="round"/>
<path d="M12.8345 8.12927H14.7479" stroke="#2073FA" stroke-linecap="round"/>
<path d="M13.2151 5.66467H14.7476" stroke="#2073FA" stroke-linecap="round"/>
<path d="M12.8345 3.37488H14.7479" stroke="#2073FA" stroke-linecap="round"/>
</svg>
