<svg width="20" height="15" viewBox="0 0 20 15" fill="none" xmlns="http://www.w3.org/2000/svg">
<path d="M19.4634 6.89128C18.5796 2.89563 17.2496 0.763009 15.2765 0.180475C14.8618 0.0588215 14.4316 -0.00195518 13.9994 4.79432e-05C13.4281 4.79432e-05 12.9306 0.139223 12.4043 0.286731C11.7701 0.464658 11.0496 0.666753 9.99914 0.666753C8.94866 0.666753 8.22779 0.465075 7.59234 0.287148C7.06564 0.139223 6.56853 4.79432e-05 5.99891 4.79432e-05C5.55198 -0.00150177 5.107 0.0590814 4.67675 0.180058C2.71414 0.760092 1.3849 2.89188 0.488178 6.88878C-0.476044 11.1899 -0.00143361 13.9054 1.81909 14.5355C2.06864 14.6234 2.3312 14.6688 2.5958 14.6696C3.84295 14.6696 4.84301 13.6308 5.52638 12.7804C6.29851 11.8178 7.20231 11.3295 9.99914 11.3295C12.4972 11.3295 13.531 11.6682 14.424 12.7804C14.9853 13.4796 15.5157 13.9688 16.0449 14.2767C16.7487 14.6859 17.4521 14.7767 18.135 14.5421C19.2109 14.175 19.8276 13.2046 19.9685 11.657C20.0756 10.4702 19.9105 8.91139 19.4634 6.89128ZM7.99903 6.6671H6.66562V8.00051C6.66562 8.17733 6.59537 8.34691 6.47034 8.47194C6.34531 8.59697 6.17573 8.66721 5.99891 8.66721C5.82209 8.66721 5.65251 8.59697 5.52748 8.47194C5.40245 8.34691 5.33221 8.17733 5.33221 8.00051V6.6671H3.9988C3.82198 6.6671 3.6524 6.59686 3.52737 6.47182C3.40233 6.34679 3.33209 6.17721 3.33209 6.00039C3.33209 5.82357 3.40233 5.65399 3.52737 5.52896C3.6524 5.40393 3.82198 5.33369 3.9988 5.33369H5.33221V4.00028C5.33221 3.82346 5.40245 3.65388 5.52748 3.52885C5.65251 3.40382 5.82209 3.33357 5.99891 3.33357C6.17573 3.33357 6.34531 3.40382 6.47034 3.52885C6.59537 3.65388 6.66562 3.82346 6.66562 4.00028V5.33369H7.99903C8.17585 5.33369 8.34543 5.40393 8.47046 5.52896C8.59549 5.65399 8.66573 5.82357 8.66573 6.00039C8.66573 6.17721 8.59549 6.34679 8.47046 6.47182C8.34543 6.59686 8.17585 6.6671 7.99903 6.6671ZM11.4992 6.83377C11.3344 6.83377 11.1733 6.7849 11.0362 6.69332C10.8992 6.60175 10.7924 6.47159 10.7293 6.31931C10.6662 6.16703 10.6497 5.99947 10.6819 5.83781C10.714 5.67615 10.7934 5.52765 10.9099 5.4111C11.0265 5.29455 11.175 5.21518 11.3366 5.18302C11.4983 5.15087 11.6659 5.16737 11.8181 5.23045C11.9704 5.29353 12.1006 5.40034 12.1922 5.53739C12.2837 5.67444 12.3326 5.83557 12.3326 6.00039C12.3326 6.22142 12.2448 6.43339 12.0885 6.58968C11.9322 6.74597 11.7203 6.83377 11.4992 6.83377ZM13.3327 8.66721C13.1678 8.66721 13.0065 8.61828 12.8694 8.52662C12.7324 8.43495 12.6255 8.30467 12.5625 8.15227C12.4995 7.99987 12.4831 7.8322 12.5155 7.67048C12.5478 7.50876 12.6274 7.36027 12.7441 7.2438C12.8609 7.12734 13.0096 7.04813 13.1714 7.01621C13.3332 6.98429 13.5008 7.00109 13.653 7.06449C13.8053 7.12788 13.9353 7.23502 14.0266 7.37235C14.1179 7.50967 14.1665 7.671 14.166 7.83591C14.1655 8.05658 14.0775 8.26802 13.9212 8.42386C13.765 8.5797 13.5533 8.66721 13.3327 8.66721ZM13.3327 5.00034C13.1678 5.00034 13.0067 4.95146 12.8697 4.85989C12.7326 4.76831 12.6258 4.63816 12.5627 4.48588C12.4996 4.3336 12.4831 4.16603 12.5153 4.00437C12.5475 3.84271 12.6268 3.69422 12.7434 3.57766C12.8599 3.46111 13.0084 3.38174 13.1701 3.34959C13.3317 3.31743 13.4993 3.33393 13.6516 3.39701C13.8039 3.46009 13.934 3.5669 14.0256 3.70395C14.1172 3.841 14.166 4.00213 14.166 4.16695C14.166 4.38798 14.0782 4.59995 13.922 4.75624C13.7657 4.91253 13.5537 5.00034 13.3327 5.00034ZM15.1661 6.83377C15.0013 6.83377 14.8402 6.7849 14.7031 6.69332C14.5661 6.60175 14.4592 6.47159 14.3962 6.31931C14.3331 6.16703 14.3166 5.99947 14.3487 5.83781C14.3809 5.67615 14.4603 5.52765 14.5768 5.4111C14.6934 5.29455 14.8419 5.21518 15.0035 5.18302C15.1652 5.15087 15.3327 5.16737 15.485 5.23045C15.6373 5.29353 15.7675 5.40034 15.859 5.53739C15.9506 5.67444 15.9995 5.83557 15.9995 6.00039C15.9995 6.22142 15.9117 6.43339 15.7554 6.58968C15.5991 6.74597 15.3871 6.83377 15.1661 6.83377Z" fill="#fff"/>
</svg>
