<svg width="18" height="18" viewBox="0 0 18 18" fill="none" xmlns="http://www.w3.org/2000/svg">
<path d="M9.00033 0.666687C7.35215 0.666687 5.74099 1.15543 4.37058 2.07111C3.00017 2.98679 1.93206 4.28827 1.30133 5.81099C0.670603 7.33371 0.505575 9.00926 0.827119 10.6258C1.14866 12.2423 1.94234 13.7271 3.10777 14.8926C4.27321 16.058 5.75807 16.8517 7.37458 17.1732C8.99109 17.4948 10.6666 17.3297 12.1894 16.699C13.7121 16.0683 15.0136 15.0002 15.9292 13.6298C16.8449 12.2594 17.3337 10.6482 17.3337 9.00002C17.3337 7.90567 17.1181 6.82204 16.6993 5.81099C16.2805 4.79994 15.6667 3.88129 14.8929 3.10746C14.1191 2.33364 13.2004 1.71981 12.1894 1.30102C11.1783 0.882235 10.0947 0.666687 9.00033 0.666687ZM9.00033 15.6667C7.68179 15.6667 6.39286 15.2757 5.29653 14.5432C4.2002 13.8106 3.34572 12.7694 2.84113 11.5512C2.33655 10.3331 2.20453 8.99263 2.46176 7.69942C2.719 6.40621 3.35393 5.21833 4.28628 4.28598C5.21863 3.35363 6.40652 2.71869 7.69973 2.46145C8.99293 2.20422 10.3334 2.33624 11.5516 2.84082C12.7697 3.34541 13.8109 4.19989 14.5435 5.29622C15.276 6.39255 15.667 7.68148 15.667 9.00002C15.667 10.7681 14.9646 12.4638 13.7144 13.7141C12.4641 14.9643 10.7684 15.6667 9.00033 15.6667Z" fill="#fff"/>
<path d="M12.3337 8.16671H9.83366V5.66671C9.83366 5.44569 9.74586 5.23373 9.58958 5.07745C9.4333 4.92117 9.22134 4.83337 9.00033 4.83337C8.77931 4.83337 8.56735 4.92117 8.41107 5.07745C8.25479 5.23373 8.16699 5.44569 8.16699 5.66671V9.00004C8.16699 9.22105 8.25479 9.43302 8.41107 9.5893C8.56735 9.74558 8.77931 9.83337 9.00033 9.83337H12.3337C12.5547 9.83337 12.7666 9.74558 12.9229 9.5893C13.0792 9.43302 13.167 9.22105 13.167 9.00004C13.167 8.77903 13.0792 8.56707 12.9229 8.41079C12.7666 8.2545 12.5547 8.16671 12.3337 8.16671Z" fill="#fff"/>
</svg>
